DungeonChunkMono.ufo
<glyph name="parenright" format="2">
  <advance width="512"/>
  <unicode hex="0029"/>
  <outline>
    <contour>
      <point x="256" y="0" type="line"/>
      <point x="64" y="0" type="line"/>
      <point x="64" y="64" type="line"/>
      <point x="128" y="64" type="line"/>
      <point x="128" y="448" type="line"/>
      <point x="64" y="448" type="line"/>
      <point x="64" y="512" type="line"/>
      <point x="256" y="512" type="line"/>
      <point x="256" y="448" type="line"/>
      <point x="320" y="448" type="line"/>
      <point x="320" y="64" type="line"/>
      <point x="256" y="64" type="line"/>
    </contour>
  </outline>
</glyph>
<glyph name="asterisk" format="2">
  <advance width="512"/>
  <unicode hex="002A"/>
  <outline>
    <contour>
      <point x="192" y="320" type="line"/>
      <point x="192" y="384" type="line"/>
      <point x="256" y="384" type="line"/>
      <point x="256" y="320" type="line"/>
    </contour>
    <contour>
      <point x="0" y="320" type="line"/>
      <point x="0" y="384" type="line"/>
      <point x="64" y="384" type="line"/>
      <point x="64" y="320" type="line"/>
    </contour>
    <contour>
      <point x="192" y="384" type="line"/>
      <point x="64" y="384" type="line"/>
      <point x="64" y="448" type="line"/>
      <point x="0" y="448" type="line"/>
      <point x="0" y="512" type="line"/>
      <point x="64" y="512" type="line"/>
      <point x="64" y="576" type="line"/>
      <point x="192" y="576" type="line"/>
      <point x="192" y="512" type="line"/>
      <point x="256" y="512" type="line"/>
      <point x="256" y="448" type="line"/>
      <point x="192" y="448" type="line"/>
    </contour>
  </outline>
</glyph>
<glyph name="hyphen" format="2">
  <advance width="512"/>
  <unicode hex="002D"/>
  <outline>
    <contour>
      <point x="384" y="192" type="line"/>
      <point x="0" y="192" type="line"/>
      <point x="0" y="320" type="line"/>
      <point x="384" y="320" type="line"/>
    </contour>
  </outline>
</glyph>
<glyph name="nine" format="2">
  <advance width="512"/>
  <unicode hex="0039"/>
  <outline>
    <contour>
      <point x="448" y="0" type="line"/>
      <point x="256" y="0" type="line"/>
      <point x="256" y="128" type="line"/>
      <point x="64" y="128" type="line"/>
      <point x="64" y="192" type="line"/>
      <point x="0" y="192" type="line"/>
      <point x="0" y="448" type="line"/>
      <point x="64" y="448" type="line"/>
      <point x="64" y="512" type="line"/>
      <point x="384" y="512" type="line"/>
      <point x="384" y="448" type="line"/>
      <point x="448" y="448" type="line"/>
    </contour>
    <contour>
      <point x="256" y="256" type="line"/>
      <point x="256" y="384" type="line"/>
      <point x="192" y="384" type="line"/>
      <point x="192" y="256" type="line"/>
    </contour>
  </outline>
</glyph>
<glyph name="J" format="2">
  <advance width="512"/>
  <unicode hex="004A"/>
  <outline>
    <contour>
      <point x="384" y="0" type="line"/>
      <point x="64" y="0" type="line"/>
      <point x="64" y="64" type="line"/>
      <point x="0" y="64" type="line"/>
      <point x="0" y="192" type="line"/>
      <point x="192" y="192" type="line"/>
      <point x="192" y="64" type="line"/>
      <point x="256" y="64" type="line"/>
      <point x="256" y="512" type="line"/>
      <point x="448" y="512" type="line"/>
      <point x="448" y="64" type="line"/>
      <point x="384" y="64" type="line"/>
    </contour>
  </outline>
</glyph>
<glyph name="R" format="2">
  <advance width="512"/>
  <unicode hex="0052"/>
  <outline>
    <contour>
      <point x="384" y="0" type="line"/>
      <point x="256" y="0" type="line"/>
      <point x="256" y="128" type="line"/>
      <point x="192" y="128" type="line"/>
      <point x="192" y="0" type="line"/>
      <point x="0" y="0" type="line"/>
      <point x="0" y="512" type="line"/>
      <point x="320" y="512" type="line"/>
      <point x="320" y="448" type="line"/>
      <point x="384" y="448" type="line"/>
      <point x="384" y="192" type="line"/>
      <point x="320" y="192" type="line"/>
      <point x="320" y="128" type="line"/>
      <point x="384" y="128" type="line"/>
    </contour>
    <contour>
      <point x="256" y="256" type="line"/>
      <point x="256" y="384" type="line"/>
      <point x="192" y="384" type="line"/>
      <point x="192" y="256" type="line"/>
    </contour>
  </outline>
</glyph>
<glyph name="bracketleft" format="2">
  <advance width="512"/>
  <unicode hex="005B"/>
  <outline>
    <contour>
      <point x="256" y="0" type="line"/>
      <point x="0" y="0" type="line"/>
      <point x="0" y="512" type="line"/>
      <point x="256" y="512" type="line"/>
      <point x="256" y="448" type="line"/>
      <point x="192" y="448" type="line"/>
      <point x="192" y="64" type="line"/>
      <point x="256" y="64" type="line"/>
    </contour>
  </outline>
</glyph>
<glyph name="backslash" format="2">
  <advance width="512"/>
  <unicode hex="005C"/>
  <outline>
    <contour>
      <point x="320" y="0" type="line"/>
      <point x="128" y="0" type="line"/>
      <point x="128" y="192" type="line"/>
      <point x="64" y="192" type="line"/>
      <point x="64" y="320" type="line"/>
      <point x="0" y="320" type="line"/>
      <point x="0" y="512" type="line"/>
      <point x="192" y="512" type="line"/>
      <point x="192" y="320" type="line"/>
      <point x="256" y="320" type="line"/>
      <point x="256" y="192" type="line"/>
      <point x="320" y="192" type="line"/>
    </contour>
  </outline>
</glyph>
<glyph name="bracketright" format="2">
  <advance width="512"/>
  <unicode hex="005D"/>
  <outline>
    <contour>
      <point x="256" y="0" type="line"/>
      <point x="0" y="0" type="line"/>
      <point x="0" y="64" type="line"/>
      <point x="64" y="64" type="line"/>
      <point x="64" y="448" type="line"/>
      <point x="0" y="448" type="line"/>
      <point x="0" y="512" type="line"/>
      <point x="256" y="512" type="line"/>
    </contour>
  </outline>
</glyph>
<glyph name="asciicircum" format="2">
  <advance width="512"/>
  <unicode hex="005E"/>
  <outline>
    <contour>
      <point x="384" y="320" type="line"/>
      <point x="256" y="320" type="line"/>
      <point x="256" y="384" type="line"/>
      <point x="192" y="384" type="line"/>
      <point x="192" y="320" type="line"/>
      <point x="64" y="320" type="line"/>
      <point x="64" y="384" type="line"/>
      <point x="128" y="384" type="line"/>
      <point x="128" y="448" type="line"/>
      <point x="192" y="448" type="line"/>
      <point x="192" y="512" type="line"/>
      <point x="256" y="512" type="line"/>
      <point x="256" y="448" type="line"/>
      <point x="320" y="448" type="line"/>
      <point x="320" y="384" type="line"/>
      <point x="384" y="384" type="line"/>
    </contour>
  </outline>
</glyph>
<glyph name="a" format="2">
  <advance width="512"/>
  <unicode hex="0061"/>
  <outline>
    <contour>
      <point x="384" y="0" type="line"/>
      <point x="64" y="0" type="line"/>
      <point x="64" y="64" type="line"/>
      <point x="0" y="64" type="line"/>
      <point x="0" y="192" type="line"/>
      <point x="64" y="192" type="line"/>
      <point x="64" y="256" type="line"/>
      <point x="192" y="256" type="line"/>
      <point x="192" y="320" type="line"/>
      <point x="64" y="320" type="line"/>
      <point x="64" y="384" type="line"/>
      <point x="384" y="384" type="line"/>
    </contour>
    <contour>
      <point x="192" y="64" type="line"/>
      <point x="192" y="192" type="line"/>
      <point x="128" y="192" type="line"/>
      <point x="128" y="64" type="line"/>
    </contour>
  </outline>
</glyph>
<glyph name="g" format="2">
  <advance width="512"/>
  <unicode hex="0067"/>
  <outline>
    <contour>
      <point x="320" y="0" type="line"/>
      <point x="64" y="0" type="line"/>
      <point x="64" y="64" type="line"/>
      <point x="192" y="64" type="line"/>
      <point x="192" y="128" type="line"/>
      <point x="64" y="128" type="line"/>
      <point x="64" y="192" type="line"/>
      <point x="0" y="192" type="line"/>
      <point x="0" y="320" type="line"/>
      <point x="64" y="320" type="line"/>
      <point x="64" y="384" type="line"/>
      <point x="384" y="384" type="line"/>
      <point x="384" y="64" type="line"/>
      <point x="320" y="64" type="line"/>
    </contour>
    <contour>
      <point x="192" y="192" type="line"/>
      <point x="192" y="320" type="line"/>
      <point x="128" y="320" type="line"/>
      <point x="128" y="192" type="line"/>
    </contour>
  </outline>
</glyph>
<glyph name="j" format="2">
  <advance width="512"/>
  <unicode hex="006A"/>
  <outline>
    <contour>
      <point x="256" y="0" type="line"/>
      <point x="0" y="0" type="line"/>
      <point x="0" y="64" type="line"/>
      <point x="128" y="64" type="line"/>
      <point x="128" y="256" type="line"/>
      <point x="320" y="256" type="line"/>
      <point x="320" y="64" type="line"/>
      <point x="256" y="64" type="line"/>
    </contour>
    <contour>
      <point x="128" y="384" type="line"/>
      <point x="320" y="384" type="line"/>
      <point x="320" y="320" type="line"/>
      <point x="128" y="320" type="line"/>
    </contour>
  </outline>
</glyph>
<glyph name="n" format="2">
  <advance width="512"/>
  <unicode hex="006E"/>
  <outline>
    <contour>
      <point x="384" y="0" type="line"/>
      <point x="256" y="0" type="line"/>
      <point x="256" y="320" type="line"/>
      <point x="128" y="320" type="line"/>
      <point x="128" y="0" type="line"/>
      <point x="0" y="0" type="line"/>
      <point x="0" y="384" type="line"/>
      <point x="320" y="384" type="line"/>
      <point x="320" y="320" type="line"/>
      <point x="384" y="320" type="line"/>
    </contour>
  </outline>
</glyph>
<glyph name="t" format="2">
  <advance width="512"/>
  <unicode hex="0074"/>
  <outline>
    <contour>
      <point x="320" y="0" type="line"/>
      <point x="128" y="0" type="line"/>
      <point x="128" y="64" type="line"/>
      <point x="64" y="64" type="line"/>
      <point x="64" y="256" type="line"/>
      <point x="0" y="256" type="line"/>
      <point x="0" y="320" type="line"/>
      <point x="64" y="320" type="line"/>
      <point x="64" y="448" type="line"/>
      <point x="256" y="448" type="line"/>
      <point x="256" y="320" type="line"/>
      <point x="320" y="320" type="line"/>
      <point x="320" y="256" type="line"/>
      <point x="256" y="256" type="line"/>
      <point x="256" y="64" type="line"/>
      <point x="320" y="64" type="line"/>
    </contour>
  </outline>
</glyph>
<glyph name="y" format="2">
  <advance width="512"/>
  <unicode hex="0079"/>
  <outline>
    <contour>
      <point x="320" y="0" type="line"/>
      <point x="0" y="0" type="line"/>
      <point x="0" y="64" type="line"/>
      <point x="256" y="64" type="line"/>
      <point x="256" y="128" type="line"/>
      <point x="64" y="128" type="line"/>
      <point x="64" y="192" type="line"/>
      <point x="0" y="192" type="line"/>
      <point x="0" y="384" type="line"/>
      <point x="192" y="384" type="line"/>
      <point x="192" y="192" type="line"/>
      <point x="256" y="192" type="line"/>
      <point x="256" y="384" type="line"/>
      <point x="384" y="384" type="line"/>
      <point x="384" y="64" type="line"/>
      <point x="320" y="64" type="line"/>
    </contour>
  </outline>
</glyph>
<glyph name="braceleft" format="2">
  <advance width="512"/>
  <unicode hex="007B"/>
  <outline>
    <contour>
      <point x="320" y="0" type="line"/>
      <point x="128" y="0" type="line"/>
      <point x="128" y="64" type="line"/>
      <point x="64" y="64" type="line"/>
      <point x="64" y="256" type="line"/>
      <point x="0" y="256" type="line"/>
      <point x="0" y="320" type="line"/>
      <point x="64" y="320" type="line"/>
      <point x="64" y="512" type="line"/>
      <point x="128" y="512" type="line"/>
      <point x="128" y="576" type="line"/>
      <point x="320" y="576" type="line"/>
      <point x="320" y="512" type="line"/>
      <point x="256" y="512" type="line"/>
      <point x="256" y="320" type="line"/>
      <point x="192" y="320" type="line"/>
      <point x="192" y="256" type="line"/>
      <point x="256" y="256" type="line"/>
      <point x="256" y="64" type="line"/>
      <point x="320" y="64" type="line"/>
    </contour>
  </outline>
</glyph>
<glyph name="braceright" format="2">
  <advance width="512"/>
  <unicode hex="007D"/>
  <outline>
    <contour>
      <point x="192" y="0" type="line"/>
      <point x="0" y="0" type="line"/>
      <point x="0" y="64" type="line"/>
      <point x="64" y="64" type="line"/>
      <point x="64" y="256" type="line"/>
      <point x="128" y="256" type="line"/>
      <point x="128" y="320" type="line"/>
      <point x="64" y="320" type="line"/>
      <point x="64" y="512" type="line"/>
      <point x="0" y="512" type="line"/>
      <point x="0" y="576" type="line"/>
      <point x="192" y="576" type="line"/>
      <point x="192" y="512" type="line"/>
      <point x="256" y="512" type="line"/>
      <point x="256" y="320" type="line"/>
      <point x="320" y="320" type="line"/>
      <point x="320" y="256" type="line"/>
      <point x="256" y="256" type="line"/>
      <point x="256" y="64" type="line"/>
      <point x="192" y="64" type="line"/>
    </contour>
  </outline>
</glyph>
<glyph name="acute" format="2">
  <advance width="512"/>
  <unicode hex="00B4"/>
  <outline>
    <contour>
      <point x="128" y="320" type="line"/>
      <point x="0" y="320" type="line"/>
      <point x="0" y="384" type="line"/>
      <point x="64" y="384" type="line"/>
      <point x="64" y="512" type="line"/>
      <point x="256" y="512" type="line"/>
      <point x="256" y="448" type="line"/>
      <point x="192" y="448" type="line"/>
      <point x="192" y="384" type="line"/>
      <point x="128" y="384" type="line"/>
    </contour>
  </outline>
</glyph>
<glyph name="Eth" format="2">
  <advance width="512"/>
  <unicode hex="00D0"/>
  <outline>
    <contour>
      <point x="448" y="0" type="line"/>
      <point x="0" y="0" type="line"/>
      <point x="0" y="192" type="line"/>
      <point x="-64" y="192" type="line"/>
      <point x="-64" y="320" type="line"/>
      <point x="0" y="320" type="line"/>
      <point x="0" y="512" type="line"/>
      <point x="448" y="512" type="line"/>
      <point x="448" y="448" type="line"/>
      <point x="512" y="448" type="line"/>
      <point x="512" y="64" type="line"/>
      <point x="448" y="64" type="line"/>
    </contour>
    <contour>
      <point x="192" y="128" type="line"/>
      <point x="320" y="128" type="line"/>
      <point x="320" y="384" type="line"/>
      <point x="192" y="384" type="line"/>
      <point x="192" y="320" type="line"/>
      <point x="256" y="320" type="line"/>
      <point x="256" y="192" type="line"/>
      <point x="192" y="192" type="line"/>
    </contour>
  </outline>
</glyph>
<glyph name="acircumflex" format="2">
  <advance width="512"/>
  <unicode hex="00E2"/>
  <outline>
    <contour>
      <point x="448" y="0" type="line"/>
      <point x="128" y="0" type="line"/>
      <point x="128" y="64" type="line"/>
      <point x="64" y="64" type="line"/>
      <point x="64" y="192" type="line"/>
      <point x="128" y="192" type="line"/>
      <point x="128" y="256" type="line"/>
      <point x="256" y="256" type="line"/>
      <point x="256" y="320" type="line"/>
      <point x="128" y="320" type="line"/>
      <point x="128" y="384" type="line"/>
      <point x="448" y="384" type="line"/>
    </contour>
    <contour>
      <point x="256" y="64" type="line"/>
      <point x="256" y="192" type="line"/>
      <point x="192" y="192" type="line"/>
      <point x="192" y="64" type="line"/>
    </contour>
    <contour>
      <point x="448" y="448" type="line"/>
      <point x="320" y="448" type="line"/>
      <point x="320" y="512" type="line"/>
      <point x="256" y="512" type="line"/>
      <point x="256" y="448" type="line"/>
      <point x="128" y="448" type="line"/>
      <point x="128" y="512" type="line"/>
      <point x="192" y="512" type="line"/>
      <point x="192" y="576" type="line"/>
      <point x="256" y="576" type="line"/>
      <point x="256" y="640" type="line"/>
      <point x="320" y="640" type="line"/>
      <point x="320" y="576" type="line"/>
      <point x="384" y="576" type="line"/>
      <point x="384" y="512" type="line"/>
      <point x="448" y="512" type="line"/>
    </contour>
  </outline>
</glyph>
<glyph name="udieresis" format="2">
  <advance width="512"/>
  <unicode hex="00FC"/>
  <outline>
    <contour>
      <point x="384" y="0" type="line"/>
      <point x="64" y="0" type="line"/>
      <point x="64" y="64" type="line"/>
      <point x="0" y="64" type="line"/>
      <point x="0" y="384" type="line"/>
      <point x="192" y="384" type="line"/>
      <point x="192" y="64" type="line"/>
      <point x="256" y="64" type="line"/>
      <point x="256" y="384" type="line"/>
      <point x="384" y="384" type="line"/>
    </contour>
    <contour>
      <point x="384" y="448" type="line"/>
      <point x="256" y="448" type="line"/>
      <point x="256" y="576" type="line"/>
      <point x="384" y="576" type="line"/>
    </contour>
    <contour>
      <point x="192" y="448" type="line"/>
      <point x="64" y="448" type="line"/>
      <point x="64" y="576" type="line"/>
      <point x="192" y="576" type="line"/>
    </contour>
  </outline>
</glyph>
<glyph name="dcaron" format="2">
  <advance width="512"/>
  <unicode hex="010F"/>
  <outline>
    <contour>
      <point x="448" y="256" type="line"/>
      <point x="448" y="448" type="line"/>
      <point x="576" y="448" type="line"/>
      <point x="576" y="320" type="line"/>
      <point x="512" y="320" type="line"/>
      <point x="512" y="256" type="line"/>
    </contour>
    <contour>
      <point x="384" y="0" type="line"/>
      <point x="64" y="0" type="line"/>
      <point x="64" y="64" type="line"/>
      <point x="0" y="64" type="line"/>
      <point x="0" y="256" type="line"/>
      <point x="64" y="256" type="line"/>
      <point x="64" y="320" type="line"/>
      <point x="192" y="320" type="line"/>
      <point x="192" y="448" type="line"/>
      <point x="384" y="448" type="line"/>
    </contour>
    <contour>
      <point x="192" y="64" type="line"/>
      <point x="192" y="256" type="line"/>
      <point x="128" y="256" type="line"/>
      <point x="128" y="64" type="line"/>
    </contour>
  </outline>
</glyph>
<glyph name="Hcircumflex" format="2">
  <advance width="512"/>
  <unicode hex="0124"/>
  <outline>
    <contour>
      <point x="384" y="0" type="line"/>
      <point x="256" y="0" type="line"/>
      <point x="256" y="192" type="line"/>
      <point x="192" y="192" type="line"/>
      <point x="192" y="0" type="line"/>
      <point x="0" y="0" type="line"/>
      <point x="0" y="512" type="line"/>
      <point x="192" y="512" type="line"/>
      <point x="192" y="320" type="line"/>
      <point x="256" y="320" type="line"/>
      <point x="256" y="512" type="line"/>
      <point x="384" y="512" type="line"/>
    </contour>
    <contour>
      <point x="384" y="576" type="line"/>
      <point x="256" y="576" type="line"/>
      <point x="256" y="640" type="line"/>
      <point x="192" y="640" type="line"/>
      <point x="192" y="576" type="line"/>
      <point x="64" y="576" type="line"/>
      <point x="64" y="640" type="line"/>
      <point x="128" y="640" type="line"/>
      <point x="128" y="704" type="line"/>
      <point x="192" y="704" type="line"/>
      <point x="192" y="768" type="line"/>
      <point x="256" y="768" type="line"/>
      <point x="256" y="704" type="line"/>
      <point x="320" y="704" type="line"/>
      <point x="320" y="640" type="line"/>
      <point x="384" y="640" type="line"/>
    </contour>
  </outline>
</glyph>
<glyph name="itilde" format="2">
  <advance width="512"/>
  <unicode hex="0129"/>
  <outline>
    <contour>
      <point x="-64" y="320" type="line"/>
      <point x="-64" y="448" type="line"/>
      <point x="128" y="448" type="line"/>
      <point x="128" y="384" type="line"/>
      <point x="192" y="384" type="line"/>
      <point x="192" y="448" type="line"/>
      <point x="256" y="448" type="line"/>
      <point x="256" y="320" type="line"/>
      <point x="64" y="320" type="line"/>
      <point x="64" y="384" type="line"/>
      <point x="0" y="384" type="line"/>
      <point x="0" y="320" type="line"/>
    </contour>
    <contour>
      <point x="256" y="0" type="line"/>
      <point x="64" y="0" type="line"/>
      <point x="64" y="64" type="line"/>
      <point x="0" y="64" type="line"/>
      <point x="0" y="256" type="line"/>
      <point x="192" y="256" type="line"/>
      <point x="192" y="64" type="line"/>
      <point x="256" y="64" type="line"/>
    </contour>
  </outline>
</glyph>
<glyph name="Imacron" format="2">
  <advance width="512"/>
  <unicode hex="012A"/>
  <outline>
    <contour>
      <point x="192" y="0" type="line"/>
      <point x="0" y="0" type="line"/>
      <point x="0" y="512" type="line"/>
      <point x="192" y="512" type="line"/>
    </contour>
    <contour>
      <point x="-64" y="640" type="line"/>
      <point x="256" y="640" type="line"/>
      <point x="256" y="576" type="line"/>
      <point x="-64" y="576" type="line"/>
    </contour>
  </outline>
</glyph>
<glyph name="Idotaccent" format="2">
  <advance width="512"/>
  <unicode hex="0130"/>
  <outline>
    <contour>
      <point x="192" y="0" type="line"/>
      <point x="0" y="0" type="line"/>
      <point x="0" y="512" type="line"/>
      <point x="192" y="512" type="line"/>
    </contour>
    <contour>
      <point x="192" y="576" type="line"/>
      <point x="0" y="576" type="line"/>
      <point x="0" y="704" type="line"/>
      <point x="192" y="704" type="line"/>
    </contour>
  </outline>
</glyph>
<glyph name="Lcaron" format="2">
  <advance width="512"/>
  <unicode hex="013D"/>
  <outline>
    <contour>
      <point x="320" y="320" type="line"/>
      <point x="320" y="512" type="line"/>
      <point x="448" y="512" type="line"/>
      <point x="448" y="384" type="line"/>
      <point x="384" y="384" type="line"/>
      <point x="384" y="320" type="line"/>
    </contour>
    <contour>
      <point x="384" y="0" type="line"/>
      <point x="0" y="0" type="line"/>
      <point x="0" y="512" type="line"/>
      <point x="192" y="512" type="line"/>
      <point x="192" y="128" type="line"/>
      <point x="384" y="128" type="line"/>
    </contour>
  </outline>
</glyph>
<glyph name="Ncaron" format="2">
  <advance width="512"/>
  <unicode hex="0147"/>
  <outline>
    <contour>
      <point x="192" y="576" type="line"/>
      <point x="192" y="640" type="line"/>
      <point x="128" y="640" type="line"/>
      <point x="128" y="704" type="line"/>
      <point x="64" y="704" type="line"/>
      <point x="64" y="768" type="line"/>
      <point x="192" y="768" type="line"/>
      <point x="192" y="704" type="line"/>
      <point x="256" y="704" type="line"/>
      <point x="256" y="768" type="line"/>
      <point x="384" y="768" type="line"/>
      <point x="384" y="704" type="line"/>
      <point x="320" y="704" type="line"/>
      <point x="320" y="640" type="line"/>
      <point x="256" y="640" type="line"/>
      <point x="256" y="576" type="line"/>
    </contour>
    <contour>
      <point x="448" y="0" type="line"/>
      <point x="320" y="0" type="line"/>
      <point x="320" y="64" type="line"/>
      <point x="256" y="64" type="line"/>
      <point x="256" y="128" type="line"/>
      <point x="192" y="128" type="line"/>
      <point x="192" y="192" type="line"/>
      <point x="128" y="192" type="line"/>
      <point x="128" y="0" type="line"/>
      <point x="0" y="0" type="line"/>
      <point x="0" y="512" type="line"/>
      <point x="128" y="512" type="line"/>
      <point x="128" y="448" type="line"/>
      <point x="192" y="448" type="line"/>
      <point x="192" y="384" type="line"/>
      <point x="256" y="384" type="line"/>
      <point x="256" y="320" type="line"/>
      <point x="320" y="320" type="line"/>
      <point x="320" y="512" type="line"/>
      <point x="448" y="512" type="line"/>
    </contour>
  </outline>
</glyph>
<glyph name="napostrophe" format="2">
  <advance width="512"/>
  <unicode hex="0149"/>
  <outline>
    <contour>
      <point x="384" y="0" type="line"/>
      <point x="256" y="0" type="line"/>
      <point x="256" y="320" type="line"/>
      <point x="192" y="320" type="line"/>
      <point x="192" y="0" type="line"/>
      <point x="0" y="0" type="line"/>
      <point x="0" y="384" type="line"/>
      <point x="320" y="384" type="line"/>
      <point x="320" y="320" type="line"/>
      <point x="384" y="320" type="line"/>
    </contour>
    <contour>
      <point x="0" y="384" type="line"/>
      <point x="-64" y="384" type="line"/>
      <point x="-64" y="576" type="line"/>
      <point x="64" y="576" type="line"/>
      <point x="64" y="448" type="line"/>
      <point x="0" y="448" type="line"/>
    </contour>
  </outline>
</glyph>
<glyph name="Racute" format="2">
  <advance width="512"/>
  <unicode hex="0154"/>
  <outline>
    <contour>
      <point x="384" y="0" type="line"/>
      <point x="256" y="0" type="line"/>
      <point x="256" y="128" type="line"/>
      <point x="192" y="128" type="line"/>
      <point x="192" y="0" type="line"/>
      <point x="0" y="0" type="line"/>
      <point x="0" y="512" type="line"/>
      <point x="320" y="512" type="line"/>
      <point x="320" y="448" type="line"/>
      <point x="384" y="448" type="line"/>
      <point x="384" y="192" type="line"/>
      <point x="320" y="192" type="line"/>
      <point x="320" y="128" type="line"/>
      <point x="384" y="128" type="line"/>
    </contour>
    <contour>
      <point x="256" y="256" type="line"/>
      <point x="256" y="384" type="line"/>
      <point x="192" y="384" type="line"/>
      <point x="192" y="256" type="line"/>
    </contour>
    <contour>
      <point x="256" y="576" type="line"/>
      <point x="128" y="576" type="line"/>
      <point x="128" y="640" type="line"/>
      <point x="192" y="640" type="line"/>
      <point x="192" y="768" type="line"/>
      <point x="384" y="768" type="line"/>
      <point x="384" y="704" type="line"/>
      <point x="320" y="704" type="line"/>
      <point x="320" y="640" type="line"/>
      <point x="256" y="640" type="line"/>
    </contour>
  </outline>
</glyph>
<glyph name="uogonek" format="2">
  <advance width="512"/>
  <unicode hex="0173"/>
  <outline>
    <contour>
      <point x="256" y="-128" type="line"/>
      <point x="384" y="-128" type="line"/>
      <point x="384" y="-192" type="line"/>
      <point x="192" y="-192" type="line"/>
      <point x="192" y="-64" type="line"/>
      <point x="256" y="-64" type="line"/>
    </contour>
    <contour>
      <point x="256" y="-64" type="line"/>
      <point x="256" y="0" type="line"/>
      <point x="64" y="0" type="line"/>
      <point x="64" y="64" type="line"/>
      <point x="0" y="64" type="line"/>
      <point x="0" y="384" type="line"/>
      <point x="192" y="384" type="line"/>
      <point x="192" y="64" type="line"/>
      <point x="256" y="64" type="line"/>
      <point x="256" y="384" type="line"/>
      <point x="384" y="384" type="line"/>
      <point x="384" y="0" type="line"/>
      <point x="320" y="0" type="line"/>
      <point x="320" y="-64" type="line"/>
    </contour>
  </outline>
</glyph>
<glyph name="Ydieresis" format="2">
  <advance width="512"/>
  <unicode hex="0178"/>
  <outline>
    <contour>
      <point x="320" y="0" type="line"/>
      <point x="128" y="0" type="line"/>
      <point x="128" y="256" type="line"/>
      <point x="64" y="256" type="line"/>
      <point x="64" y="384" type="line"/>
      <point x="0" y="384" type="line"/>
      <point x="0" y="512" type="line"/>
      <point x="192" y="512" type="line"/>
      <point x="192" y="384" type="line"/>
      <point x="320" y="384" type="line"/>
      <point x="320" y="512" type="line"/>
      <point x="448" y="512" type="line"/>
      <point x="448" y="384" type="line"/>
      <point x="384" y="384" type="line"/>
      <point x="384" y="256" type="line"/>
      <point x="320" y="256" type="line"/>
    </contour>
    <contour>
      <point x="384" y="576" type="line"/>
      <point x="256" y="576" type="line"/>
      <point x="256" y="704" type="line"/>
      <point x="384" y="704" type="line"/>
    </contour>
    <contour>
      <point x="192" y="576" type="line"/>
      <point x="64" y="576" type="line"/>
      <point x="64" y="704" type="line"/>
      <point x="192" y="704" type="line"/>
    </contour>
  </outline>
</glyph>
<glyph name="Zdotaccent" format="2">
  <advance width="512"/>
  <unicode hex="017B"/>
  <outline>
    <contour>
      <point x="448" y="0" type="line"/>
      <point x="0" y="0" type="line"/>
      <point x="0" y="128" type="line"/>
      <point x="64" y="128" type="line"/>
      <point x="64" y="192" type="line"/>
      <point x="128" y="192" type="line"/>
      <point x="128" y="256" type="line"/>
      <point x="192" y="256" type="line"/>
      <point x="192" y="320" type="line"/>
      <point x="256" y="320" type="line"/>
      <point x="256" y="384" type="line"/>
      <point x="64" y="384" type="line"/>
      <point x="64" y="512" type="line"/>
      <point x="448" y="512" type="line"/>
      <point x="448" y="320" type="line"/>
      <point x="384" y="320" type="line"/>
      <point x="384" y="256" type="line"/>
      <point x="320" y="256" type="line"/>
      <point x="320" y="192" type="line"/>
      <point x="256" y="192" type="line"/>
      <point x="256" y="128" type="line"/>
      <point x="448" y="128" type="line"/>
    </contour>
    <contour>
      <point x="320" y="576" type="line"/>
      <point x="192" y="576" type="line"/>
      <point x="192" y="704" type="line"/>
      <point x="320" y="704" type="line"/>
    </contour>
  </outline>
</glyph>
